<?xml version="1.0" encoding="UTF-8"?>
<svg id="Layer_2" data-name="Layer 2" xmlns="http://www.w3.org/2000/svg" viewBox="0 0 470.51 417.25">
  <defs>
    <style>
      .cls-1 {
        fill: #596152;
      }
    </style>
  </defs>
  <g id="Layer_1-2" data-name="Layer 1">
    <g>
      <path class="cls-1" d="M410.65,417.25c-15.53-2.41-33.89-4.19-54.51-4.11-19.59.07-37.11,1.79-52.04,4.11-4.52-4.88-9.08-9.78-13.68-14.68-4.59-4.89-9.22-9.78-13.88-14.71L46.48,142.77v215.74c0,7.63.27,31.76.54,47.23.09,4.91.13,8.92.22,11.28-7.81-1.61-15.57-2.68-23.37-2.68-5.71,0-11.11.58-16.64,1.52-.85.13-1.69.27-2.54.45-1.56.27-3.08.58-4.68.94,6.42-54.73,9.9-160.65,9.9-317.25,0-26.18-.58-67.39-1.74-100h22.43c125.33,145.94,252.27,284.78,380.05,417.25Z"/>
      <path class="cls-1" d="M59.86,0c15.53,2.41,33.89,4.19,54.51,4.11,19.59-.07,37.11-1.79,52.04-4.11,4.52,4.88,9.08,9.78,13.68,14.68,4.59,4.89,9.22,9.78,13.88,14.71l230.05,245.09V58.74c0-7.63-.27-31.76-.54-47.23-.09-4.91-.13-8.92-.22-11.28,7.81,1.61,15.57,2.68,23.37,2.68,5.71,0,11.11-.58,16.64-1.52.85-.13,1.69-.27,2.54-.45,1.56-.27,3.08-.58,4.68-.94-6.42,54.73-9.9,160.65-9.9,317.25,0,26.18.58,67.39,1.74,100h-22.43C314.58,271.31,187.64,132.47,59.86,0Z"/>
    </g>
  </g>
</svg>