<?xml version="1.0" encoding="UTF-8" standalone="no"?>
<svg
   id="Layer_2"
   data-name="Layer 2"
   viewBox="0 0 638.64 334.03"
   version="1.1"
   sodipodi:docname="nivo-logo-white.svg"
   inkscape:version="1.4.2 (ebf0e940, 2025-05-08)"
   xmlns:inkscape="http://www.inkscape.org/namespaces/inkscape"
   xmlns:sodipodi="http://sodipodi.sourceforge.net/DTD/sodipodi-0.dtd"
   xmlns="http://www.w3.org/2000/svg"
   xmlns:svg="http://www.w3.org/2000/svg">
  <sodipodi:namedview
     id="namedview12"
     pagecolor="#ffffff"
     bordercolor="#000000"
     borderopacity="0.25"
     inkscape:showpageshadow="2"
     inkscape:pageopacity="0.0"
     inkscape:pagecheckerboard="0"
     inkscape:deskcolor="#d1d1d1"
     inkscape:zoom="1.3027684"
     inkscape:cx="318.93621"
     inkscape:cy="166.95217"
     inkscape:window-width="1904"
     inkscape:window-height="1186"
     inkscape:window-x="0"
     inkscape:window-y="31"
     inkscape:window-maximized="0"
     inkscape:current-layer="Layer_2" />
  <defs
     id="defs1">
    <style
       id="style1">
      .cls-1 {
        fill: #596152;
      }
    </style>
  </defs>
  <g
     id="Layer_1-2"
     data-name="Layer 1"
     style="fill:#ffffff">
    <g
       id="g12"
       style="fill:#ffffff">
      <g
         id="g2"
         style="fill:#ffffff">
        <path
           class="cls-1"
           d="M391.86,172.56c-6.42-1-14.02-1.73-22.54-1.7-8.1.03-15.35.74-21.52,1.7-1.87-2.02-3.75-4.04-5.66-6.07-1.9-2.02-3.81-4.05-5.74-6.09l-95.15-101.36v89.22c0,3.15.11,13.13.22,19.53.04,2.03.06,3.69.09,4.67-3.23-.66-6.44-1.11-9.67-1.11-2.36,0-4.59.24-6.88.63-.35.06-.7.11-1.05.18-.65.11-1.27.24-1.94.39,2.66-22.63,4.1-66.44,4.1-131.21,0-10.83-.24-27.87-.72-41.36h9.28c51.83,60.36,104.33,117.78,157.18,172.56Z"
           id="path1"
           style="fill:#ffffff" />
        <path
           class="cls-1"
           d="M246.78,0c6.42,1,14.02,1.73,22.54,1.7,8.1-.03,15.35-.74,21.52-1.7,1.87,2.02,3.75,4.04,5.66,6.07,1.9,2.02,3.81,4.05,5.74,6.09l95.15,101.36V24.29c0-3.15-.11-13.13-.22-19.53-.04-2.03-.06-3.69-.09-4.67,3.23.66,6.44,1.11,9.67,1.11,2.36,0,4.59-.24,6.88-.63.35-.06.7-.11,1.05-.18.65-.11,1.27-.24,1.94-.39-2.66,22.63-4.1,66.44-4.1,131.21,0,10.83.24,27.87.72,41.36h-9.28C352.13,112.21,299.63,54.78,246.78,0Z"
           id="path2"
           style="fill:#ffffff" />
      </g>
      <g
         id="g11"
         style="fill:#ffffff">
        <path
           class="cls-1"
           d="M2.2,228.29c0-5.82-.13-12.43-.39-19.67h4.66c20.45,23.82,41.16,46.47,62,68.08v-35.34c0-8.54-.52-19.03-1.55-31.06,1.81.26,3.62.39,5.31.39,1.81,0,3.49-.13,5.05-.39-1.29,8.67-2.2,32.23-2.2,70.41,0,3.88.13,10.36.39,19.55h-4.27c-7.25-9.71-15.66-18.9-24.59-28.35l-37.54-40v35.21c0,11.65.52,22.13,1.68,31.71-1.81-.39-3.62-.65-5.44-.65s-3.49.26-5.31.65c1.42-12.17,2.2-35.73,2.2-70.54Z"
           id="path3"
           style="fill:#ffffff" />
        <path
           class="cls-1"
           d="M102.64,207.57c4.66,0,7.51,2.72,7.51,7.38,0,4.14-2.72,6.86-6.99,6.86-4.79,0-7.77-2.85-7.77-6.99s2.98-7.25,7.25-7.25ZM96.56,261.29c0-9.19-.13-17.34-.91-24.59,2.2.39,4.27.52,6.47.52s4.4-.13,6.6-.52c-.91,7.9-.91,15.53-.91,22.91,0,16.31.26,29.38.91,39.09-2.2-.39-4.4-.65-6.6-.65s-4.27.26-6.47.65c.65-7.64.91-20.06.91-37.41Z"
           id="path4"
           style="fill:#ffffff" />
        <path
           class="cls-1"
           d="M118.95,236.7c2.85.39,5.57.52,8.15.52,2.72,0,5.31-.13,7.9-.52,2.72,9.19,5.31,17.09,7.9,23.82l10.1,25.5,10.74-28.74c2.33-6.21,4.53-13.07,6.6-20.58,1.94.39,3.75.52,5.57.52s3.75-.13,5.57-.52c-10.61,19.54-19.29,40.38-27.31,62-1.55-.52-3.24-.78-4.79-.78s-3.11.26-4.66.78c-2.72-10.48-11.13-31.19-25.76-62Z"
           id="path5"
           style="fill:#ffffff" />
        <path
           class="cls-1"
           d="M216.67,300.25c-19.8,0-31.84-12.17-31.84-32.49s12.55-32.62,31.84-32.62,31.84,12.43,31.84,32.62-12.56,32.49-31.84,32.49ZM216.8,239.93c-11.52,0-18.64,9.97-18.64,27.83s7.25,27.7,18.64,27.7,18.38-9.97,18.38-27.7-6.99-27.83-18.38-27.83Z"
           id="path6"
           style="fill:#ffffff" />
        <path
           class="cls-1"
           d="M341.71,300.51c-31.06,0-48.93-17.09-48.93-46.21s19.42-45.69,50.22-45.69c13.07,0,24.2,2.72,33.14,7.77-2.07,3.75-3.24,7.9-3.36,12.3h-2.07c-6.47-9.58-15.66-14.63-28.61-14.63-20.58,0-34.82,15.4-34.82,39.61,0,25.76,13.33,40.9,35.59,40.9,6.99,0,13.72-1.55,20.32-4.66.26-4.27.39-8.41.39-12.68,0-6.08-.26-12.3-.91-18.51,2.33.39,4.53.65,6.86.65,2.59,0,5.18-.26,7.77-.78-.39,6.34-.65,12.56-.65,18.64s.26,12.17.65,18.12c-12.69,3.5-24.59,5.18-35.6,5.18Z"
           id="path7"
           style="fill:#ffffff" />
        <path
           class="cls-1"
           d="M392.58,257.67c0-6.34,0-13.33-1.04-20.97,2.33.39,4.53.52,6.86.52,2.2,0,4.53-.13,6.73-.52-.65,4.14-1.04,8.02-1.04,11.52v1.55c5.05-9.84,11.52-14.5,20.32-14.5.91,0,1.94,0,2.98.13-.26,1.94-.52,4.01-.52,6.08s.26,4.14.52,6.34c-3.75-.91-6.6-1.42-8.67-1.42-4.01,0-7.64,1.68-10.1,4.4-4.53,5.05-4.79,10.1-4.79,15.79v13.46c0,5.31.26,11.52.78,18.64-2.2-.39-4.4-.65-6.6-.65s-4.27.26-6.47.65c.91-6.6,1.04-20.32,1.04-41.03Z"
           id="path8"
           style="fill:#ffffff" />
        <path
           class="cls-1"
           d="M464.67,300.25c-19.8,0-31.84-12.17-31.84-32.49s12.55-32.62,31.84-32.62,31.84,12.43,31.84,32.62-12.56,32.49-31.84,32.49ZM464.8,239.93c-11.52,0-18.64,9.97-18.64,27.83s7.25,27.7,18.64,27.7,18.38-9.97,18.38-27.7-6.99-27.83-18.38-27.83Z"
           id="path9"
           style="fill:#ffffff" />
        <path
           class="cls-1"
           d="M562.27,273.98c0,8.54,0,16.83.91,24.72-2.07-.39-4.14-.65-6.08-.65-2.07,0-4.14.26-6.21.65.13-3.49.39-7.25.52-11.13-5.44,8.67-12.04,12.69-21.23,12.69-14.5,0-20.71-7.64-20.71-23.43v-18.38c0-6.08,0-13.33-.52-21.74,2.2.39,4.27.52,6.47.52s4.4-.13,6.47-.52c-.91,19.16-1.16,32.1-1.16,38.57,0,11.52,4.27,16.96,13.98,16.96,11.91,0,16.44-8.54,16.44-25.89,0-10.1-.26-20.06-.65-29.64,2.2.39,4.27.52,6.34.52s4.27-.13,6.34-.52c-.78,8.15-.91,20.58-.91,37.28Z"
           id="path10"
           style="fill:#ffffff" />
        <path
           class="cls-1"
           d="M580.52,297.92c0-29.64-.26-49.96-.78-61.22,2.07.39,4.14.52,6.21.52,1.94,0,4.01-.13,6.08-.52-.52,3.88-.78,7.51-.91,11.39,4.92-8.93,11.52-12.94,21.23-12.94,15.92,0,26.28,12.3,26.28,32.88s-10.61,32.23-26.02,32.23c-9.84,0-16.44-3.37-20.84-11v18.9c0,9.58,0,18.12.78,25.89-2.07-.39-4.27-.65-6.34-.65-2.2,0-4.27.26-6.47.65.78-12.81.78-24.85.78-36.11ZM608.35,242.39c-10.61,0-17.34,9.19-17.34,25.5s6.73,26.15,17.34,26.15,17.09-9.45,17.09-25.89-6.6-25.76-17.09-25.76Z"
           id="path11"
           style="fill:#ffffff" />
      </g>
    </g>
  </g>
</svg>
