<?xml version="1.0" encoding="UTF-8" standalone="no"?>
<svg
   id="Layer_2"
   data-name="Layer 2"
   viewBox="0 0 687.74 132.39"
   version="1.1"
   sodipodi:docname="nivo-full-logo-white.svg"
   inkscape:version="1.4.2 (ebf0e940, 2025-05-08)"
   xmlns:inkscape="http://www.inkscape.org/namespaces/inkscape"
   xmlns:sodipodi="http://sodipodi.sourceforge.net/DTD/sodipodi-0.dtd"
   xmlns="http://www.w3.org/2000/svg"
   xmlns:svg="http://www.w3.org/2000/svg">
  <sodipodi:namedview
     id="namedview12"
     pagecolor="#ffffff"
     bordercolor="#000000"
     borderopacity="0.25"
     inkscape:showpageshadow="2"
     inkscape:pageopacity="0.0"
     inkscape:pagecheckerboard="0"
     inkscape:deskcolor="#d1d1d1"
     inkscape:zoom="1.2097595"
     inkscape:cx="343.45669"
     inkscape:cy="66.54215"
     inkscape:window-width="1728"
     inkscape:window-height="1186"
     inkscape:window-x="0"
     inkscape:window-y="31"
     inkscape:window-maximized="0"
     inkscape:current-layer="Layer_2" />
  <defs
     id="defs1">
    <style
       id="style1">
      .cls-1 {
        fill: #596152;
      }
    </style>
  </defs>
  <g
     id="Layer_1-2"
     data-name="Layer 1"
     style="fill:#ffffff">
    <g
       id="g12"
       style="fill:#ffffff">
      <g
         id="g2"
         style="fill:#ffffff">
        <path
           class="cls-1"
           d="M130.29,132.39c-4.93-.77-10.75-1.33-17.29-1.3-6.22.02-11.77.57-16.51,1.3-1.43-1.55-2.88-3.1-4.34-4.66-1.46-1.55-2.93-3.1-4.4-4.67L14.75,45.3v68.45c0,2.42.08,10.08.17,14.99.03,1.56.04,2.83.07,3.58-2.48-.51-4.94-.85-7.42-.85-1.81,0-3.52.18-5.28.48-.27.04-.54.08-.81.14-.5.08-.98.18-1.49.3,2.04-17.36,3.14-50.97,3.14-100.66,0-8.31-.18-21.38-.55-31.73h7.12c39.77,46.3,80.04,90.36,120.58,132.39Z"
           id="path1"
           style="fill:#ffffff" />
        <path
           class="cls-1"
           d="M18.99,0c4.93.77,10.75,1.33,17.29,1.3,6.22-.02,11.77-.57,16.51-1.3,1.43,1.55,2.88,3.1,4.34,4.66,1.46,1.55,2.93,3.1,4.4,4.67l72.99,77.76V18.64c0-2.42-.08-10.08-.17-14.99-.03-1.56-.04-2.83-.07-3.58,2.48.51,4.94.85,7.42.85,1.81,0,3.52-.18,5.28-.48.27-.04.54-.08.81-.14.5-.08.98-.18,1.49-.3-2.04,17.36-3.14,50.97-3.14,100.66,0,8.31.18,21.38.55,31.73h-7.12C99.81,86.08,59.54,42.03,18.99,0Z"
           id="path2"
           style="fill:#ffffff" />
      </g>
      <g
         id="g11"
         style="fill:#ffffff">
        <path
           class="cls-1"
           d="M199.48,33.57c0-4.47-.1-9.53-.3-15.09h3.57c15.69,18.27,31.58,35.65,47.56,52.23v-27.11c0-6.55-.4-14.6-1.19-23.83,1.39.2,2.78.3,4.07.3,1.39,0,2.68-.1,3.87-.3-.99,6.65-1.69,24.73-1.69,54.02,0,2.98.1,7.94.3,14.99h-3.28c-5.56-7.45-12.02-14.5-18.87-21.75l-28.8-30.68v27.01c0,8.94.4,16.98,1.29,24.33-1.39-.3-2.78-.5-4.17-.5s-2.68.2-4.07.5c1.09-9.33,1.69-27.41,1.69-54.12Z"
           id="path3"
           style="fill:#ffffff" />
        <path
           class="cls-1"
           d="M276.54,17.69c3.57,0,5.76,2.09,5.76,5.66,0,3.18-2.09,5.26-5.36,5.26-3.67,0-5.96-2.18-5.96-5.36s2.28-5.56,5.56-5.56ZM271.87,58.89c0-7.05-.1-13.31-.7-18.87,1.69.3,3.28.4,4.97.4s3.38-.1,5.06-.4c-.7,6.06-.7,11.92-.7,17.58,0,12.51.2,22.54.7,29.99-1.69-.3-3.38-.5-5.06-.5s-3.28.2-4.97.5c.5-5.86.7-15.39.7-28.7Z"
           id="path4"
           style="fill:#ffffff" />
        <path
           class="cls-1"
           d="M289.05,40.03c2.18.3,4.27.4,6.26.4,2.09,0,4.07-.1,6.06-.4,2.09,7.05,4.07,13.11,6.06,18.27l7.75,19.56,8.24-22.04c1.79-4.77,3.48-10.03,5.06-15.79,1.49.3,2.88.4,4.27.4s2.88-.1,4.27-.4c-8.14,14.99-14.8,30.98-20.95,47.56-1.19-.4-2.48-.6-3.67-.6s-2.38.2-3.57.6c-2.09-8.04-8.54-23.93-19.76-47.56Z"
           id="path5"
           style="fill:#ffffff" />
        <path
           class="cls-1"
           d="M364.02,88.78c-15.19,0-24.43-9.33-24.43-24.93s9.63-25.02,24.43-25.02,24.43,9.53,24.43,25.02-9.63,24.93-24.43,24.93ZM364.12,42.51c-8.84,0-14.3,7.65-14.3,21.35s5.56,21.25,14.3,21.25,14.1-7.65,14.1-21.25-5.36-21.35-14.1-21.35Z"
           id="path6"
           style="fill:#ffffff" />
        <path
           class="cls-1"
           d="M459.94,88.98c-23.83,0-37.54-13.11-37.54-35.45s14.9-35.05,38.53-35.05c10.03,0,18.57,2.09,25.42,5.96-1.59,2.88-2.48,6.06-2.58,9.43h-1.59c-4.97-7.35-12.02-11.22-21.95-11.22-15.79,0-26.71,11.82-26.71,30.39,0,19.76,10.23,31.38,27.31,31.38,5.36,0,10.53-1.19,15.59-3.57.2-3.28.3-6.46.3-9.73,0-4.67-.2-9.43-.7-14.2,1.79.3,3.48.5,5.26.5,1.99,0,3.97-.2,5.96-.6-.3,4.87-.5,9.63-.5,14.3s.2,9.33.5,13.9c-9.73,2.68-18.87,3.97-27.31,3.97Z"
           id="path7"
           style="fill:#ffffff" />
        <path
           class="cls-1"
           d="M498.97,56.11c0-4.87,0-10.23-.79-16.09,1.79.3,3.48.4,5.26.4,1.69,0,3.48-.1,5.16-.4-.5,3.18-.79,6.16-.79,8.84v1.19c3.87-7.55,8.84-11.12,15.59-11.12.7,0,1.49,0,2.28.1-.2,1.49-.4,3.08-.4,4.67s.2,3.18.4,4.87c-2.88-.7-5.06-1.09-6.65-1.09-3.08,0-5.86,1.29-7.75,3.38-3.48,3.87-3.67,7.75-3.67,12.11v10.33c0,4.07.2,8.84.6,14.3-1.69-.3-3.38-.5-5.06-.5s-3.28.2-4.97.5c.7-5.06.79-15.59.79-31.48Z"
           id="path8"
           style="fill:#ffffff" />
        <path
           class="cls-1"
           d="M554.28,88.78c-15.19,0-24.43-9.33-24.43-24.93s9.63-25.02,24.43-25.02,24.43,9.53,24.43,25.02-9.63,24.93-24.43,24.93ZM554.38,42.51c-8.84,0-14.3,7.65-14.3,21.35s5.56,21.25,14.3,21.25,14.1-7.65,14.1-21.25-5.36-21.35-14.1-21.35Z"
           id="path9"
           style="fill:#ffffff" />
        <path
           class="cls-1"
           d="M629.15,68.63c0,6.55,0,12.91.7,18.97-1.59-.3-3.18-.5-4.67-.5-1.59,0-3.18.2-4.77.5.1-2.68.3-5.56.4-8.54-4.17,6.65-9.23,9.73-16.29,9.73-11.12,0-15.89-5.86-15.89-17.97v-14.1c0-4.67,0-10.23-.4-16.68,1.69.3,3.28.4,4.97.4s3.38-.1,4.97-.4c-.7,14.7-.89,24.63-.89,29.59,0,8.84,3.28,13.01,10.72,13.01,9.14,0,12.61-6.55,12.61-19.86,0-7.75-.2-15.39-.5-22.74,1.69.3,3.28.4,4.87.4s3.28-.1,4.87-.4c-.6,6.26-.7,15.79-.7,28.6Z"
           id="path10"
           style="fill:#ffffff" />
        <path
           class="cls-1"
           d="M643.15,87c0-22.74-.2-38.33-.6-46.97,1.59.3,3.18.4,4.77.4,1.49,0,3.08-.1,4.67-.4-.4,2.98-.6,5.76-.7,8.74,3.77-6.85,8.84-9.93,16.29-9.93,12.21,0,20.16,9.43,20.16,25.22s-8.14,24.73-19.96,24.73c-7.55,0-12.61-2.58-15.99-8.44v14.5c0,7.35,0,13.9.6,19.86-1.59-.3-3.28-.5-4.87-.5-1.69,0-3.28.2-4.97.5.6-9.83.6-19.07.6-27.7ZM664.5,44.4c-8.14,0-13.31,7.05-13.31,19.56s5.16,20.06,13.31,20.06,13.11-7.25,13.11-19.86-5.06-19.76-13.11-19.76Z"
           id="path11"
           style="fill:#ffffff" />
      </g>
    </g>
  </g>
</svg>
